<?xml version="1.0" encoding="UTF-8"?>
<!DOCTYPE svg PUBLIC "-//W3C//DTD SVG 1.1//EN" "http://www.w3.org/Graphics/SVG/1.1/DTD/svg11.dtd">
<svg xmlns="http://www.w3.org/2000/svg" version="1.1" width="512px" height="512px" style="shape-rendering:geometricPrecision; text-rendering:geometricPrecision; image-rendering:optimizeQuality; fill-rule:evenodd; clip-rule:evenodd" xmlns:xlink="http://www.w3.org/1999/xlink">
<g><path style="opacity:0.977" fill="#45413c" d="M 511.5,177.5 C 511.5,184.5 511.5,191.5 511.5,198.5C 506.486,220.515 493.153,234.849 471.5,241.5C 476.095,282.671 457.928,306.005 417,311.5C 409.59,311.023 402.423,309.356 395.5,306.5C 386.018,342.823 362.685,358.657 325.5,354C 316.571,351.787 308.738,347.62 302,341.5C 291.045,358.064 275.545,366.398 255.5,366.5C 235.467,366.403 219.967,358.069 209,341.5C 192.926,354.821 174.759,358.655 154.5,353C 132.997,344.662 119.997,329.162 115.5,306.5C 90.868,315.471 69.368,310.471 51,291.5C 39.6207,276.645 35.7874,259.978 39.5,241.5C 17.8508,234.852 4.51746,220.519 -0.5,198.5C -0.5,191.5 -0.5,184.5 -0.5,177.5C 4.48442,156.234 17.3178,141.901 38,134.5C 38.7741,107.076 51.9407,88.5755 77.5,79C 90.1518,75.4391 102.652,75.9391 115,80.5C 115.945,80.0946 116.612,79.428 117,78.5C 123.679,49.3113 142.012,33.6447 172,31.5C 184.102,31.9786 195.102,35.6452 205,42.5C 219.2,16.3206 241.033,6.15393 270.5,12C 286.959,16.7935 298.793,26.9601 306,42.5C 327.711,28.0666 349.544,27.8999 371.5,42C 383.697,51.2203 391.197,63.387 394,78.5C 394.388,79.428 395.055,80.0946 396,80.5C 423.655,71.6087 446.322,78.6087 464,101.5C 470.258,111.607 473.258,122.607 473,134.5C 493.212,142.276 506.045,156.609 511.5,177.5 Z"/></g>
<g><path style="opacity:1" fill="#8ba3b7" d="M 493.5,164.5 C 484.403,172.714 480.236,183.047 481,195.5C 471.311,230.021 448.644,244.688 413,239.5C 405.855,240.242 400.188,243.575 396,249.5C 383.371,280.732 360.538,292.899 327.5,286C 322.38,283.94 317.38,281.607 312.5,279C 309.167,278.333 305.833,278.333 302.5,279C 293.702,284.904 284.702,290.571 275.5,296C 252.1,304.399 231.767,299.732 214.5,282C 209.501,279.109 204.167,278.109 198.5,279C 171.086,294.72 146.586,291.22 125,268.5C 120.887,262.609 117.554,256.276 115,249.5C 110.577,243.289 104.577,239.956 97,239.5C 64.9442,244.314 43.2776,231.647 32,201.5C 32.3729,189.825 29.3729,179.158 23,169.5C 21.2962,167.627 19.4628,165.96 17.5,164.5C 20.2126,158.948 24.2126,154.448 29.5,151C 35.6071,147.612 41.9404,144.779 48.5,142.5C 46.6171,116.069 57.9504,98.2356 82.5,89C 95.9608,85.5739 108.294,87.9073 119.5,96C 122.636,97.0405 125.136,96.2072 127,93.5C 126.384,68.4638 137.884,51.9638 161.5,44C 178.115,41.0963 192.449,45.4297 204.5,57C 206.5,57.6667 208.5,57.6667 210.5,57C 215.674,40.4928 226.341,29.1594 242.5,23C 271.538,17.8504 290.871,29.1837 300.5,57C 302.5,57.6667 304.5,57.6667 306.5,57C 318.123,45.2383 332.123,40.9049 348.5,44C 372.685,51.534 384.518,68.034 384,93.5C 385.525,96.0867 387.692,96.9201 390.5,96C 413.881,82.4246 434.714,85.5913 453,105.5C 460.388,116.719 463.555,129.052 462.5,142.5C 472.444,145.555 481.277,150.555 489,157.5C 490.75,159.734 492.25,162.068 493.5,164.5 Z"/></g>
<g><path style="opacity:1" fill="#46433e" d="M 204.5,155.5 C 209.156,154.34 211.823,156.007 212.5,160.5C 209.56,171.27 202.56,177.77 191.5,180C 186.833,180.667 182.167,180.667 177.5,180C 171.81,177.218 171.143,173.551 175.5,169C 189.096,172.86 198.762,168.36 204.5,155.5 Z"/></g>
<g><path style="opacity:1" fill="#46433e" d="M 300.5,155.5 C 306.377,154.862 309.877,157.528 311,163.5C 318.005,170.501 326.171,172.334 335.5,169C 340.268,174.802 338.935,178.468 331.5,180C 318.622,182.267 308.455,178.1 301,167.5C 298.04,163.487 297.873,159.487 300.5,155.5 Z"/></g>
<g><path style="opacity:1" fill="#627a8b" d="M 17.5,164.5 C 19.4628,165.96 21.2962,167.627 23,169.5C 29.3729,179.158 32.3729,189.825 32,201.5C 43.2776,231.647 64.9442,244.314 97,239.5C 104.577,239.956 110.577,243.289 115,249.5C 117.554,256.276 120.887,262.609 125,268.5C 146.586,291.22 171.086,294.72 198.5,279C 204.167,278.109 209.501,279.109 214.5,282C 231.767,299.732 252.1,304.399 275.5,296C 284.702,290.571 293.702,284.904 302.5,279C 305.833,278.333 309.167,278.333 312.5,279C 317.38,281.607 322.38,283.94 327.5,286C 360.538,292.899 383.371,280.732 396,249.5C 400.188,243.575 405.855,240.242 413,239.5C 448.644,244.688 471.311,230.021 481,195.5C 480.236,183.047 484.403,172.714 493.5,164.5C 496.703,168.573 498.87,173.24 500,178.5C 502.541,208.428 489.208,226.762 460,233.5C 458.335,237.566 458.668,241.566 461,245.5C 464.134,271.332 453.634,288.832 429.5,298C 415.895,301.51 403.228,299.51 391.5,292C 388.166,290.788 385.666,291.621 384,294.5C 384.697,315.953 375.53,331.453 356.5,341C 335.624,348.365 317.958,343.698 303.5,327C 301.833,326.333 300.167,326.333 298.5,327C 283.537,353.65 261.87,361.316 233.5,350C 225.228,345.061 219.061,338.228 215,329.5C 213.136,326.793 210.636,325.959 207.5,327C 189.271,346.765 168.605,349.765 145.5,336C 132.274,324.325 125.607,309.659 125.5,292C 123.5,291.333 121.5,291.333 119.5,292C 101.059,302.523 83.0595,301.856 65.5,290C 50.208,275.278 45.8747,257.778 52.5,237.5C 52.2811,236.062 51.7811,234.729 51,233.5C 21.8982,226.72 8.56485,208.387 11,178.5C 12.1304,173.24 14.2971,168.573 17.5,164.5 Z"/></g>
<g><path style="opacity:1" fill="#627b8d" d="M 169.5,188.5 C 175.434,187.889 181.1,188.722 186.5,191C 191.714,198.255 190.048,203.255 181.5,206C 175.038,207.486 169.205,206.319 164,202.5C 161.122,195.928 162.956,191.262 169.5,188.5 Z"/></g>
<g><path style="opacity:1" fill="#627b8c" d="M 328.5,188.5 C 334.94,187.79 340.94,188.957 346.5,192C 350.277,199.115 348.277,203.782 340.5,206C 333.436,207.745 327.269,206.245 322,201.5C 321.333,198.833 321.333,196.167 322,193.5C 323.965,191.45 326.132,189.783 328.5,188.5 Z"/></g>
<g><path style="opacity:1" fill="#47423e" d="M 247.5,210.5 C 278.819,209.185 298.485,223.518 306.5,253.5C 305.23,261.936 300.397,266.936 292,268.5C 279.895,266.383 267.729,264.716 255.5,263.5C 243.235,264.474 231.068,266.14 219,268.5C 205.636,264.77 201.636,256.437 207,243.5C 215.255,225.969 228.755,214.969 247.5,210.5 Z"/></g>
<g><path style="opacity:1" fill="#fbaec7" d="M 247.5,221.5 C 270.643,219.521 286.477,229.187 295,250.5C 296.489,254.833 294.989,257.167 290.5,257.5C 266.156,252.427 241.823,252.261 217.5,257C 215.556,254.847 215.056,252.347 216,249.5C 221.977,234.95 232.477,225.617 247.5,221.5 Z"/></g>
<g><path style="opacity:0.969" fill="#45413c" d="M 132.5,362.5 C 137.126,361.7 140.96,363.034 144,366.5C 151.102,379.369 155.935,393.036 158.5,407.5C 156.423,419.909 149.09,426.909 136.5,428.5C 123.409,427.408 115.743,420.408 113.5,407.5C 116.787,392.807 121.953,378.807 129,365.5C 130.145,364.364 131.312,363.364 132.5,362.5 Z"/></g>
<g><path style="opacity:0.971" fill="#45413c" d="M 371.5,362.5 C 375.516,361.9 379.016,362.9 382,365.5C 389.044,378.796 394.21,392.796 397.5,407.5C 395.257,420.408 387.591,427.408 374.5,428.5C 354.337,423.842 348.17,411.842 356,392.5C 359.082,383.588 362.748,374.922 367,366.5C 368.397,364.93 369.897,363.596 371.5,362.5 Z"/></g>
<g><path style="opacity:1" fill="#bcd7e6" d="M 146.5,409.5 C 143.019,411.104 139.352,412.104 135.5,412.5C 132.316,412.491 129.483,411.491 127,409.5C 126.601,409.728 126.435,410.062 126.5,410.5C 125.366,408.034 125.199,405.367 126,402.5C 128.545,393.531 131.879,384.864 136,376.5C 141.356,386.054 145.19,396.221 147.5,407C 147.472,408.07 147.139,408.903 146.5,409.5 Z"/></g>
<g><path style="opacity:1" fill="#bdd7e6" d="M 384.5,410.5 C 384.565,410.062 384.399,409.728 384,409.5C 378.357,412.967 372.524,413.301 366.5,410.5C 365.893,410.624 365.56,410.957 365.5,411.5C 363.674,409.545 363.174,407.212 364,404.5C 366.57,394.699 370.237,385.366 375,376.5C 381.013,387.329 384.18,398.663 384.5,410.5 Z"/></g>
<g><path style="opacity:0.969" fill="#45413c" d="M 254.5,398.5 C 257.745,398.97 260.579,400.303 263,402.5C 270.228,415.517 275.061,429.35 277.5,444C 275.375,460.446 266.041,467.446 249.5,465C 239.237,461.739 233.903,454.739 233.5,444C 235.939,429.35 240.772,415.517 248,402.5C 250.013,400.752 252.18,399.418 254.5,398.5 Z"/></g>
<g><path style="opacity:1" fill="#e1edf3" d="M 146.5,409.5 C 144.771,414.383 141.271,416.716 136,416.5C 131.224,416.87 128.057,414.87 126.5,410.5C 126.435,410.062 126.601,409.728 127,409.5C 129.483,411.491 132.316,412.491 135.5,412.5C 139.352,412.104 143.019,411.104 146.5,409.5 Z"/></g>
<g><path style="opacity:1" fill="#e1edf3" d="M 384.5,410.5 C 382.943,414.87 379.776,416.87 375,416.5C 370.744,416.79 367.577,415.123 365.5,411.5C 365.56,410.957 365.893,410.624 366.5,410.5C 372.524,413.301 378.357,412.967 384,409.5C 384.399,409.728 384.565,410.062 384.5,410.5 Z"/></g>
<g><path style="opacity:1" fill="#bdd8e6" d="M 265.5,447.5 C 258.807,448.777 252.141,448.777 245.5,447.5C 245.714,435.498 249.047,424.164 255.5,413.5C 261.953,424.164 265.286,435.498 265.5,447.5 Z"/></g>
<g><path style="opacity:0.971" fill="#45413c" d="M 211.5,479.5 C 211.351,481.351 211.351,483.184 211.5,485C 209.694,489.054 207.527,492.887 205,496.5C 192.993,506.122 181.827,505.289 171.5,494C 170.252,490.029 168.585,486.195 166.5,482.5C 168.878,465.523 174.878,450.023 184.5,436C 190.246,434.277 194.746,435.777 198,440.5C 204.196,452.92 208.696,465.92 211.5,479.5 Z"/></g>
<g><path style="opacity:0.974" fill="#45413c" d="M 346.5,482.5 C 345.791,483.404 344.791,483.737 343.5,483.5C 342.585,491.659 338.085,497.659 330,501.5C 328.853,500.542 327.853,500.875 327,502.5C 326.667,502.167 326.333,501.833 326,501.5C 324.184,503.441 322.184,504.108 320,503.5C 309.81,500.642 302.977,494.808 299.5,486C 300.598,483.885 300.598,481.718 299.5,479.5C 302.375,464.37 307.709,450.203 315.5,437C 321.045,434.351 325.879,435.185 330,439.5C 336.646,453.635 342.146,467.968 346.5,482.5 Z"/></g>
<g><path style="opacity:1" fill="#e3eff5" d="M 265.5,447.5 C 261.986,454.173 256.653,456.006 249.5,453C 247.536,451.549 246.203,449.716 245.5,447.5C 252.141,448.777 258.807,448.777 265.5,447.5 Z"/></g>
<g><path style="opacity:1" fill="#bcd7e5" d="M 199.5,484.5 C 199.631,483.624 199.298,482.957 198.5,482.5C 191.68,486.83 185.18,486.497 179,481.5C 178.536,482.094 178.369,482.761 178.5,483.5C 179.387,471.651 182.887,460.318 189,449.5C 195.715,460.455 199.215,472.121 199.5,484.5 Z"/></g>
<g><path style="opacity:1" fill="#bcd7e5" d="M 332.5,483.5 C 332.631,482.761 332.464,482.094 332,481.5C 325.756,486.341 319.256,486.675 312.5,482.5C 311.702,482.957 311.369,483.624 311.5,484.5C 311.785,472.121 315.285,460.455 322,449.5C 328.111,460.313 331.611,471.647 332.5,483.5 Z"/></g>
<g><path style="opacity:0.153" fill="#43423b" d="M 211.5,479.5 C 240.833,479.5 270.167,479.5 299.5,479.5C 300.598,481.718 300.598,483.885 299.5,486C 302.977,494.808 309.81,500.642 320,503.5C 322.184,504.108 324.184,503.441 326,501.5C 326.333,501.833 326.667,502.167 327,502.5C 327.853,500.875 328.853,500.542 330,501.5C 338.085,497.659 342.585,491.659 343.5,483.5C 344.791,483.737 345.791,483.404 346.5,482.5C 360.962,483.78 375.295,485.947 389.5,489C 402.833,493.333 402.833,497.667 389.5,502C 361.255,507.247 332.922,510.413 304.5,511.5C 271.833,511.5 239.167,511.5 206.5,511.5C 178.078,510.413 149.745,507.247 121.5,502C 108.167,497.667 108.167,493.333 121.5,489C 136.349,485.769 151.349,483.602 166.5,482.5C 168.585,486.195 170.252,490.029 171.5,494C 181.827,505.289 192.993,506.122 205,496.5C 207.527,492.887 209.694,489.054 211.5,485C 211.351,483.184 211.351,481.351 211.5,479.5 Z"/></g>
<g><path style="opacity:1" fill="#e1ecf2" d="M 199.5,484.5 C 195.83,492.223 190.164,494.056 182.5,490C 180.266,488.362 178.933,486.195 178.5,483.5C 178.369,482.761 178.536,482.094 179,481.5C 185.18,486.497 191.68,486.83 198.5,482.5C 199.298,482.957 199.631,483.624 199.5,484.5 Z"/></g>
<g><path style="opacity:1" fill="#e0ecf1" d="M 332.5,483.5 C 328.755,492.376 322.755,494.376 314.5,489.5C 313.048,488.06 312.048,486.394 311.5,484.5C 311.369,483.624 311.702,482.957 312.5,482.5C 319.256,486.675 325.756,486.341 332,481.5C 332.464,482.094 332.631,482.761 332.5,483.5 Z"/></g>
</svg>
